<svg xmlns="http://www.w3.org/2000/svg" xmlns:xlink="http://www.w3.org/1999/xlink" width="250" zoomAndPan="magnify" viewBox="0 0 187.5 52.499999" height="70" preserveAspectRatio="xMidYMid meet" version="1.0"><defs><g/></defs><g fill="#ffffff" fill-opacity="1"><g transform="translate(1.538614, 37.506982)"><g><path d="M 9.015625 -23.328125 L 20.84375 -23.328125 L 20.84375 -19.25 L 8.875 -19.25 C 7.820312 -19.25 7.050781 -18.988281 6.5625 -18.46875 C 6.082031 -17.957031 5.84375 -17.296875 5.84375 -16.484375 C 5.84375 -15.773438 6.078125 -15.132812 6.546875 -14.5625 C 7.023438 -14 7.941406 -13.71875 9.296875 -13.71875 L 14.765625 -13.71875 C 16.347656 -13.71875 17.648438 -13.519531 18.671875 -13.125 C 19.703125 -12.738281 20.5 -12.210938 21.0625 -11.546875 C 21.625 -10.878906 22.019531 -10.132812 22.25 -9.3125 C 22.488281 -8.5 22.609375 -7.675781 22.609375 -6.84375 C 22.609375 -5.53125 22.359375 -4.359375 21.859375 -3.328125 C 21.367188 -2.304688 20.570312 -1.492188 19.46875 -0.890625 C 18.375 -0.296875 16.941406 0 15.171875 0 L 2.171875 0 L 2.171875 -4.078125 L 15.3125 -4.078125 C 16.414062 -4.078125 17.226562 -4.347656 17.75 -4.890625 C 18.269531 -5.429688 18.53125 -6.128906 18.53125 -6.984375 C 18.53125 -7.742188 18.273438 -8.414062 17.765625 -9 C 17.253906 -9.59375 16.285156 -9.890625 14.859375 -9.890625 L 9.4375 -9.890625 C 7.894531 -9.890625 6.617188 -10.082031 5.609375 -10.46875 C 4.609375 -10.863281 3.828125 -11.390625 3.265625 -12.046875 C 2.703125 -12.703125 2.3125 -13.425781 2.09375 -14.21875 C 1.875 -15.019531 1.765625 -15.820312 1.765625 -16.625 C 1.765625 -17.914062 2.007812 -19.066406 2.5 -20.078125 C 3 -21.097656 3.773438 -21.894531 4.828125 -22.46875 C 5.890625 -23.039062 7.285156 -23.328125 9.015625 -23.328125 Z M 9.015625 -23.328125 "/></g></g></g><g fill="#ffffff" fill-opacity="1"><g transform="translate(24.28582, 37.506982)"><g><path d="M 1 -23.328125 L 18.734375 -23.328125 L 18.734375 -19.25 L 11.921875 -19.25 L 11.921875 0 L 7.8125 0 L 7.8125 -19.25 L 1 -19.25 Z M 1 -23.328125 "/></g></g></g><g fill="#ffffff" fill-opacity="1"><g transform="translate(42.469759, 37.506982)"><g><path d="M 12.546875 -18.765625 L 5.15625 0 L 0.65625 0 L 8.84375 -20.734375 C 9.28125 -21.816406 9.898438 -22.585938 10.703125 -23.046875 C 11.515625 -23.515625 12.53125 -23.75 13.75 -23.75 C 14.976562 -23.75 15.988281 -23.515625 16.78125 -23.046875 C 17.570312 -22.585938 18.175781 -21.816406 18.59375 -20.734375 L 26.46875 0 L 21.953125 0 L 14.859375 -18.765625 C 14.648438 -19.296875 14.269531 -19.5625 13.71875 -19.5625 C 13.164062 -19.5625 12.773438 -19.296875 12.546875 -18.765625 Z M 12.546875 -18.765625 "/></g></g></g><g fill="#ffffff" fill-opacity="1"><g transform="translate(68.017157, 37.506982)"><g><path d="M 2.765625 -23.328125 L 15.421875 -23.328125 C 17.171875 -23.328125 18.597656 -23.003906 19.703125 -22.359375 C 20.804688 -21.710938 21.617188 -20.859375 22.140625 -19.796875 C 22.660156 -18.742188 22.921875 -17.59375 22.921875 -16.34375 C 22.921875 -15.375 22.75 -14.414062 22.40625 -13.46875 C 22.070312 -12.53125 21.546875 -11.691406 20.828125 -10.953125 C 20.117188 -10.210938 19.164062 -9.671875 17.96875 -9.328125 L 23.40625 0 L 18.875 0 L 13.546875 -9.015625 L 7.46875 -9.015625 C 7.070312 -9.015625 6.875 -8.820312 6.875 -8.4375 L 6.875 0 L 2.796875 0 L 2.796875 -9.234375 C 2.796875 -10.546875 3.085938 -11.488281 3.671875 -12.0625 C 4.265625 -12.632812 5.195312 -12.921875 6.46875 -12.921875 L 15.546875 -12.921875 C 16.703125 -12.921875 17.53125 -13.253906 18.03125 -13.921875 C 18.539062 -14.597656 18.796875 -15.347656 18.796875 -16.171875 C 18.796875 -17.003906 18.535156 -17.722656 18.015625 -18.328125 C 17.503906 -18.941406 16.679688 -19.25 15.546875 -19.25 L 2.765625 -19.25 Z M 2.765625 -23.328125 "/></g></g></g><g fill="#ffffff" fill-opacity="1"><g transform="translate(91.144634, 37.506982)"><g><path d="M 1 -23.328125 L 18.734375 -23.328125 L 18.734375 -19.25 L 11.921875 -19.25 L 11.921875 0 L 7.8125 0 L 7.8125 -19.25 L 1 -19.25 Z M 1 -23.328125 "/></g></g></g><g fill="#ffffff" fill-opacity="1"><g transform="translate(109.328572, 37.506982)"><g><path d="M 2.65625 -23.328125 L 6.8125 -23.328125 L 6.8125 -7.734375 C 6.8125 -6.585938 7.117188 -5.691406 7.734375 -5.046875 C 8.359375 -4.398438 9.34375 -4.078125 10.6875 -4.078125 L 14.828125 -4.078125 C 16.140625 -4.078125 17.101562 -4.398438 17.71875 -5.046875 C 18.34375 -5.691406 18.65625 -6.585938 18.65625 -7.734375 L 18.65625 -23.328125 L 22.671875 -23.328125 L 22.671875 -7.4375 C 22.671875 -2.476562 20.148438 0 15.109375 0 L 10.203125 0 C 5.171875 0 2.65625 -2.476562 2.65625 -7.4375 Z M 2.65625 -23.328125 "/></g></g></g><g fill="#ffffff" fill-opacity="1"><g transform="translate(133.078322, 37.506982)"><g><path d="M 2.765625 -23.328125 L 14.71875 -23.328125 C 16.46875 -23.328125 17.894531 -23.003906 19 -22.359375 C 20.113281 -21.710938 20.925781 -20.859375 21.4375 -19.796875 C 21.957031 -18.742188 22.21875 -17.59375 22.21875 -16.34375 C 22.21875 -15.164062 21.96875 -14.019531 21.46875 -12.90625 C 20.976562 -11.789062 20.1875 -10.863281 19.09375 -10.125 C 18 -9.382812 16.539062 -9.015625 14.71875 -9.015625 L 7.46875 -9.015625 C 7.070312 -9.015625 6.875 -8.820312 6.875 -8.4375 L 6.875 0 L 2.796875 0 L 2.796875 -9.234375 C 2.796875 -10.546875 3.085938 -11.488281 3.671875 -12.0625 C 4.265625 -12.632812 5.195312 -12.921875 6.46875 -12.921875 L 14.859375 -12.921875 C 16.015625 -12.921875 16.84375 -13.253906 17.34375 -13.921875 C 17.851562 -14.597656 18.109375 -15.335938 18.109375 -16.140625 C 18.109375 -16.992188 17.847656 -17.722656 17.328125 -18.328125 C 16.816406 -18.941406 16.003906 -19.25 14.890625 -19.25 L 2.765625 -19.25 Z M 2.765625 -23.328125 "/></g></g></g><g fill="#ffffff" fill-opacity="1"><g transform="translate(154.995842, 37.506982)"><g><path d="M 1.625 -23.328125 L 6.59375 -23.328125 L 13.75 -14.71875 L 21.25 -23.328125 L 26.296875 -23.328125 L 16.3125 -11.859375 L 26.375 0 L 21.390625 0 L 13.65625 -9.265625 L 5.703125 0 L 0.65625 0 L 11.09375 -12.171875 Z M 1.625 -23.328125 "/></g></g></g><g fill="#ffffff" fill-opacity="1"><g transform="translate(180.440549, 37.506982)"><g/></g></g></svg>